<svg version="1.1" id="Layer_1" xmlns="http://www.w3.org/2000/svg" xmlns:xlink="http://www.w3.org/1999/xlink" x="0px" y="0px"
	 width="100%" viewBox="0 0 1971 588" enable-background="new 0 0 1971 588" xml:space="preserve">
<path fill="#FFFFFF" opacity="1.000000" stroke="none" 
	d="
M1438.000000,589.000000 
	C960.166687,589.000000 482.833344,588.994873 5.500019,589.092834 
	C1.750962,589.093628 0.904294,588.249268 0.906360,584.499939 
	C1.012691,391.500000 1.012691,198.500000 0.906359,5.500051 
	C0.904294,1.750737 1.751000,0.906721 5.500014,0.907274 
	C659.500000,1.003758 1313.500000,1.003758 1967.500000,0.907274 
	C1971.249023,0.906721 1972.095703,1.750736 1972.093628,5.500051 
	C1971.987305,198.500000 1971.987305,391.500000 1972.093628,584.499939 
	C1972.095703,588.249268 1971.249268,589.096069 1967.500000,589.093811 
	C1791.166626,588.986145 1614.833374,589.000000 1438.000000,589.000000 
z"/>
<path fill="#ED2590" opacity="1.000000" stroke="none" 
	d="
M892.608154,508.885925 
	C892.603210,449.399872 892.622742,390.405853 892.585938,331.411865 
	C892.578552,319.596985 892.627930,307.769897 890.944336,296.027802 
	C888.186523,276.794373 874.779846,275.002899 863.970154,278.051758 
	C857.728149,279.812256 854.250244,284.736694 851.900391,290.520355 
	C847.847656,300.495422 847.868713,311.011627 847.864258,321.503204 
	C847.838196,382.996948 847.771240,444.490997 847.994019,505.983917 
	C848.013123,511.274231 846.442200,512.131531 841.624939,512.109436 
	C800.130005,511.919037 758.633667,511.938293 717.138489,512.096863 
	C713.053833,512.112427 711.886963,511.205292 711.897278,506.964600 
	C712.047119,445.471222 712.006958,383.977356 711.992737,322.483612 
	C711.990479,312.823853 711.977722,303.153290 709.884460,293.648315 
	C706.918518,280.180786 695.926819,273.728302 683.320923,277.952942 
	C676.682190,280.177795 673.278870,285.335114 671.005188,291.461731 
	C667.342651,301.330902 667.199585,311.696014 667.187805,322.009064 
	C667.117859,383.336090 667.074707,444.663483 667.293213,505.989807 
	C667.311890,511.240753 665.786255,512.135132 660.950195,512.112183 
	C619.622009,511.916290 578.292114,511.923126 536.963806,512.110840 
	C532.505737,512.131165 531.494690,510.942932 531.502808,506.594116 
	C531.642151,432.271637 531.470154,357.948547 531.642578,283.626221 
	C531.794067,218.359543 578.838196,159.193756 642.324463,145.791550 
	C691.248169,135.463577 733.758850,149.628845 770.133362,183.343887 
	C772.697205,185.720276 775.507690,187.924957 777.632263,190.654190 
	C779.732605,193.352402 780.926636,192.687332 783.027710,190.738403 
	C796.256165,178.468033 810.609558,167.755615 826.397278,158.897110 
	C896.719055,119.439285 1000.326721,152.598038 1022.027161,245.789734 
	C1025.970459,262.724121 1028.138794,279.848450 1028.144287,297.230988 
	C1028.165894,366.890564 1028.094360,436.550293 1028.277954,506.209381 
	C1028.291016,511.149353 1026.948120,512.137512 1022.230713,512.114929 
	C980.735901,511.916534 939.239685,512.020874 897.744080,511.932373 
	C895.857605,511.928345 892.644226,513.537659 892.608154,508.885925 
z"/>
<path fill="#ED2590" opacity="1.000000" stroke="none" 
	d="
M1376.653320,167.343582 
	C1424.714600,197.959213 1454.821045,240.268677 1463.750488,296.731232 
	C1466.521729,314.254608 1466.202637,331.887238 1464.941406,349.544373 
	C1464.622437,354.009430 1461.828491,352.979034 1459.373291,352.980133 
	C1402.217407,353.006104 1345.061523,353.000214 1287.905640,353.000214 
	C1279.407227,353.000214 1270.906494,352.887573 1262.411621,353.062408 
	C1259.511108,353.122070 1257.981201,352.447083 1257.171509,349.384003 
	C1252.140503,330.351807 1252.655273,311.545898 1258.626709,292.789673 
	C1259.629272,289.640503 1261.109253,288.757172 1264.274292,288.778198 
	C1284.436157,288.912323 1304.600098,288.776764 1324.761963,288.910889 
	C1328.361694,288.934845 1329.230469,288.295685 1328.280640,284.468933 
	C1324.063721,267.477539 1315.625977,254.167831 1297.499146,250.072861 
	C1277.076904,245.459396 1259.157227,250.123154 1245.260498,266.641418 
	C1233.903442,280.140900 1228.509399,296.130768 1227.214722,313.391083 
	C1225.642334,334.354462 1226.997437,355.076141 1237.120728,374.172546 
	C1245.018555,389.070648 1256.111572,400.130707 1273.552002,403.308899 
	C1291.147583,406.515350 1305.239990,399.715027 1317.313843,387.855713 
	C1320.949951,384.284058 1322.479248,384.266571 1325.726807,388.219757 
	C1348.985596,416.531647 1372.432251,444.690674 1396.033936,472.717529 
	C1399.001709,476.241669 1398.391602,477.633820 1395.023315,480.154083 
	C1353.636963,511.122162 1307.230225,523.315247 1255.947754,518.198669 
	C1211.818726,513.795837 1174.069946,495.959747 1142.692993,464.808044 
	C1109.377197,431.731354 1091.543945,391.600342 1088.818359,344.677521 
	C1086.159790,298.908966 1096.109253,256.637207 1123.925537,219.595169 
	C1156.590698,176.095795 1199.679443,149.611450 1254.096069,143.356079 
	C1297.196167,138.401566 1338.440796,144.611725 1376.653320,167.343582 
z"/>
</svg>